<?xml version="1.0" standalone="no"?>
<!DOCTYPE svg PUBLIC "-//W3C//DTD SVG 20010904//EN"
 "http://www.w3.org/TR/2001/REC-SVG-20010904/DTD/svg10.dtd">
<svg version="1.0" xmlns="http://www.w3.org/2000/svg"
 width="70.000000pt" height="70.000000pt" viewBox="0 0 70.000000 70.000000"
 preserveAspectRatio="xMidYMid meet">
<metadata>
Created by potrace 1.14, written by Peter Selinger 2001-2017
</metadata>
<g transform="translate(0.000000,70.000000) scale(0.100000,-0.100000)"
fill="#000000" stroke="none">
<path d="M397 613 c-14 -4 -9 -11 26 -33 53 -34 73 -59 23 -29 -55 32 -119 13
-139 -43 -8 -22 9 -23 43 -3 14 8 39 14 55 14 l30 0 -32 -14 c-42 -18 -66 -65
-55 -108 l8 -32 19 38 c16 34 70 87 89 87 4 0 14 7 23 15 14 14 18 10 46 -42
17 -32 31 -73 32 -91 3 -44 10 -49 29 -20 25 38 11 101 -29 130 -6 5 -5 8 2 8
7 0 30 -17 53 -38 22 -22 42 -37 45 -34 15 15 1 56 -26 83 -28 28 -37 31 -73
26 -32 -4 -37 -3 -22 5 10 5 35 12 55 13 20 2 38 4 40 4 2 1 -2 8 -9 16 -21
25 -85 19 -108 -10 l-20 -25 -5 30 c-4 19 -17 35 -36 45 -31 16 -34 16 -64 8z"/>
<path d="M468 482 c-11 -5 -14 -12 -9 -21 5 -7 5 -29 1 -50 -4 -20 -11 -53
-14 -73 l-7 -38 -39 20 c-112 57 -252 -11 -275 -134 -6 -27 -13 -38 -31 -42
-13 -3 -24 -11 -24 -16 0 -6 9 -7 23 -3 42 14 116 17 150 6 21 -7 49 -9 73 -4
64 14 92 6 96 -25 2 -19 9 -27 23 -27 16 0 19 6 17 28 -4 29 2 31 61 28 15 0
27 3 27 9 0 5 -6 10 -14 10 -8 0 -18 14 -21 32 -4 18 -13 44 -20 58 -10 20 -9
41 6 115 27 136 25 146 -23 127z"/>
<path d="M222 425 c-11 -14 -28 -25 -39 -25 -24 0 -61 -26 -51 -36 4 -4 14 -1
23 6 8 7 26 10 39 8 19 -4 26 0 31 19 3 13 17 28 30 33 30 11 32 20 6 20 -11
0 -28 -11 -39 -25z"/>
<path d="M90 420 c-11 -11 -26 -20 -33 -20 -19 0 -53 -27 -45 -36 4 -4 14 -1
23 6 8 7 24 10 35 7 13 -3 20 0 20 8 0 7 12 23 28 34 21 16 23 20 10 21 -10 0
-27 -9 -38 -20z"/>
</g>
</svg>
