<svg width="571" height="135" viewBox="0 0 571 135" fill="none" xmlns="http://www.w3.org/2000/svg">
<path fill-rule="evenodd" clip-rule="evenodd" d="M516.415 11.6943C508.84 1.00385 500.031 5.83439 496.574 9.58597C510.532 11.7544 518.828 24.6289 521.233 30.7992C511.163 15.0504 498.776 14.9574 493.842 16.8797C496.613 16.587 498.583 17.5467 499.221 18.0632C482.299 17.0477 478.972 29.7767 479.424 36.2682C496.793 22.9441 514.534 27.0717 521.234 30.8014L521.235 30.8032C527.329 19.51 519.757 10.1737 515.209 6.91725C516.742 8.15671 516.651 10.6184 516.415 11.6943ZM521.128 31.9726C513.166 33.9811 496.201 42.7323 492.035 61.6689C488.52 57.1357 483.276 45.0785 496.403 36.6855L490.076 39.8059C493.412 34.9 506.77 23.3997 521.128 31.9726ZM523.747 32.5493C530.131 37.7138 541.857 52.7768 537.692 71.7134C542.784 69.0737 552.604 60.3302 544.211 47.2033L548.644 52.6906C547.676 46.8379 540.377 30.7932 523.747 32.5493ZM524.144 31.4395C528.917 26.848 541.85 18.6443 555.429 22.5337C553.865 17.6776 547.897 9.59646 536.535 16.1211C536.772 15.0452 537.723 12.7729 539.634 12.2908C534.14 13.3382 523.349 18.6349 524.141 31.4429C524.141 31.4425 524.142 31.4421 524.142 31.4417C531.789 30.8683 549.624 34.5671 559.798 53.95C562.932 48.2475 565.254 35.2976 549.468 29.1176C550.264 28.9167 552.455 28.8722 554.848 30.3011C551.176 26.4854 539.894 21.3717 524.144 31.4395Z" fill="#A2C579"/>
<path d="M465 66.5C465 60.7875 463.875 55.1309 461.689 49.8533C459.503 44.5756 456.299 39.7802 452.259 35.7409C448.22 31.7015 443.425 28.4973 438.147 26.3112C432.869 24.1252 427.213 23 421.5 23C415.788 23 410.131 24.1252 404.854 26.3112C399.576 28.4973 394.78 31.7015 390.741 35.7409C386.702 39.7802 383.498 44.5756 381.311 49.8533C379.125 55.1309 378 60.7875 378 66.5L414 70.5L431 67.5L447.5 71.5L465 66.5Z" fill="#FFBD5A"/>
<path fill-rule="evenodd" clip-rule="evenodd" d="M376.456 31.5814C376.687 32.6614 375.999 33.7246 374.919 33.956C368.461 35.34 365.766 38.3523 364.623 40.7876C364.029 42.0524 363.815 43.2451 363.771 44.1228C363.749 44.5634 363.772 44.8989 363.8 45.1C363.802 45.1145 363.804 45.1277 363.806 45.1396C364.129 45.818 364.051 46.6452 363.554 47.2591C362.91 48.0546 361.769 48.235 360.91 47.677C357.507 45.4649 354.446 45.5987 351.924 46.5972C349.297 47.6373 347.208 49.6505 346.128 51.1626C345.486 52.0614 344.237 52.2696 343.338 51.6276C342.439 50.9856 342.231 49.7365 342.873 48.8377C344.293 46.8498 346.954 44.263 350.451 42.8781C353.211 41.7853 356.462 41.4615 359.898 42.7129C360.063 41.6225 360.397 40.3768 361.002 39.0879C362.734 35.3983 366.54 31.6609 374.081 30.0448C375.161 29.8134 376.224 30.5013 376.456 31.5814Z" fill="#005662"/>
<path fill-rule="evenodd" clip-rule="evenodd" d="M344.956 34.0813C345.187 35.1614 344.499 36.2246 343.419 36.456C338.127 37.59 335.975 40.0399 335.071 41.9648C334.597 42.9745 334.427 43.9249 334.392 44.6191C334.376 44.9552 334.392 45.2073 334.411 45.3543C334.709 46.0235 334.623 46.8265 334.138 47.426C333.493 48.2215 332.352 48.4019 331.493 47.8439C328.757 46.0651 326.321 46.178 324.309 46.9745C322.193 47.8125 320.499 49.4424 319.628 50.6629C318.986 51.5617 317.737 51.7699 316.838 51.1279C315.939 50.4859 315.731 49.2368 316.373 48.3379C317.584 46.6417 319.849 44.4382 322.837 43.2554C325.106 42.3571 327.763 42.0665 330.569 42.9842C330.727 42.1458 331.002 41.219 331.45 40.2652C332.942 37.0859 336.206 33.9109 342.581 32.5448C343.661 32.3134 344.724 33.0013 344.956 34.0813Z" fill="#005662"/>
<path fill-rule="evenodd" clip-rule="evenodd" d="M371.175 72.4151C370.256 72.8006 369.37 73.168 368.597 73.4097C367.543 73.7391 366.421 73.1515 366.091 72.0972C365.762 71.043 366.349 69.9212 367.404 69.5917C367.964 69.4167 368.671 69.1278 369.627 68.7269C369.725 68.6854 369.826 68.643 369.929 68.5997C370.791 68.2371 371.798 67.8138 372.927 67.3824C375.468 66.4112 378.66 65.3857 382.566 64.7746C390.245 63.5733 400.508 64.0015 413.905 69.3073C424.627 64.0662 436.159 65.5634 447.297 69.3172C450.939 67.3539 460.883 63.1977 472.229 67.6375C473.258 68.04 473.765 69.2002 473.363 70.2288C472.96 71.2574 471.8 71.765 470.771 71.3625C460.138 67.2016 450.838 71.8303 448.529 73.2156C448.021 73.5207 447.403 73.5845 446.843 73.3897C435.535 69.456 424.698 68.1548 414.928 73.2723C414.407 73.5456 413.791 73.5751 413.246 73.3529C400.06 67.9807 390.26 67.6196 383.184 68.7265C379.632 69.2822 376.72 70.215 374.355 71.1189C373.291 71.5253 372.345 71.9231 371.479 72.2871C371.377 72.3302 371.275 72.3729 371.175 72.4151Z" fill="#016A70"/>
<path d="M34.3521 134.84C28.2081 134.84 23.2587 133.731 19.5041 131.512C15.8347 129.379 13.1467 125.966 11.4401 121.272C9.73339 116.494 8.88006 110.094 8.88006 102.072C8.88006 97.2083 8.92273 93.6243 9.00806 91.3203C9.09339 82.5309 9.00806 75.4909 8.75206 70.2003C8.58139 64.9096 7.85606 59.9603 6.57606 55.3523C5.29606 50.6589 3.29073 46.8189 0.560059 43.8323C5.50939 39.9923 10.8427 38.0723 16.5601 38.0723C20.8267 38.0723 24.3254 39.3523 27.0561 41.9123C29.8721 44.4723 32.0054 48.7816 33.4561 54.8403C34.9067 60.8136 35.6321 68.9203 35.6321 79.1603C35.6321 87.0963 35.5467 94.3496 35.3761 100.92C35.2907 107.406 35.1201 112.995 34.8641 117.688H36.4001C45.4454 103.352 52.2721 90.8083 56.8801 80.0563C61.5734 69.2189 63.9201 61.1549 63.9201 55.8643C63.9201 53.5603 63.7067 51.4696 63.2801 49.5923C62.8534 47.6296 62.1281 45.7096 61.1041 43.8323C63.5787 42.0403 66.4374 40.6323 69.6801 39.6083C73.0081 38.5843 76.1654 38.0723 79.1521 38.0723C83.0774 38.0723 86.0214 39.1389 87.9841 41.2723C90.0321 43.4056 91.0561 46.5203 91.0561 50.6163C91.0561 55.9069 89.2214 63.1603 85.5521 72.3763C81.8827 81.5923 75.0134 96.0136 64.9441 115.64L66.8641 122.808C63.0241 126.307 57.9894 129.166 51.7601 131.384C45.6161 133.688 39.8134 134.84 34.3521 134.84Z" fill="#D2DE32"/>
<path d="M97.6401 133C94.3334 133 91.9334 132.174 90.4401 130.52C88.9467 128.867 88.2001 126.387 88.2001 123.08C88.2001 121 88.6801 117.507 89.6401 112.6C90.6534 107.694 91.8801 102.067 93.3201 95.7203L88.8401 89.0003C91.4001 87.1869 94.0401 85.7469 96.7601 84.6803C99.5334 83.5603 102.147 83.0003 104.6 83.0003C106.787 83.0003 108.333 83.4803 109.24 84.4403C110.147 85.3469 110.6 86.8403 110.6 88.9203C110.6 89.6136 110.387 90.8936 109.96 92.7603C109.587 94.5736 109.16 96.5736 108.68 98.7603C107.453 103.827 106.467 108.254 105.72 112.04C105.027 115.774 104.68 119.027 104.68 121.8C104.68 125.214 105.507 127.64 107.16 129.08C104.173 131.694 101 133 97.6401 133ZM102.44 78.6003C99.9334 78.6003 97.8801 78.0136 96.2801 76.8403C94.7334 75.6136 93.9601 73.9869 93.9601 71.9603C93.9601 70.1469 94.5201 68.5736 95.6401 67.2403C96.7601 65.9069 98.1467 64.9203 99.8001 64.2803C101.507 63.5869 103.16 63.2403 104.76 63.2403C107.267 63.2403 109.293 63.8536 110.84 65.0803C112.44 66.2536 113.24 67.8536 113.24 69.8803C113.24 72.3869 112.173 74.4669 110.04 76.1203C107.907 77.7736 105.373 78.6003 102.44 78.6003Z" fill="#D2DE32"/>
<path d="M132.576 133C129.002 133 126.122 132.414 123.936 131.24C121.749 130.067 120.149 128.227 119.136 125.72C118.122 123.214 117.616 119.907 117.616 115.8C117.616 113.347 117.642 111.507 117.696 110.28C117.749 105.747 117.696 102.174 117.536 99.5603C117.429 96.8936 117.029 94.4136 116.336 92.1203C115.696 89.8269 114.656 87.9336 113.216 86.4403C116.149 84.1469 119.322 83.0003 122.736 83.0003C125.082 83.0003 127.029 83.6136 128.576 84.8403C130.176 86.0136 131.402 88.0403 132.256 90.9203C133.109 93.8003 133.536 97.7203 133.536 102.68C133.536 104.814 133.509 107.027 133.456 109.32C133.456 111.56 133.429 113.8 133.376 116.04C133.322 117.374 133.269 118.654 133.216 119.88C133.216 121.054 133.189 122.174 133.136 123.24H133.936C138.416 116.467 141.882 110.307 144.336 104.76C146.789 99.2136 148.016 95.1069 148.016 92.4403C148.016 90.4136 147.509 88.4136 146.496 86.4403C147.829 85.4269 149.482 84.6003 151.456 83.9603C153.482 83.3203 155.402 83.0003 157.216 83.0003C159.562 83.0003 161.322 83.5603 162.496 84.6803C163.669 85.8003 164.256 87.4803 164.256 89.7203C164.256 91.3736 163.882 93.2936 163.136 95.4803C162.442 97.6669 161.136 100.68 159.216 104.52C157.349 108.36 154.469 113.934 150.576 121.24L152.416 125.48C149.962 127.667 146.869 129.48 143.136 130.92C139.402 132.307 135.882 133 132.576 133Z" fill="#D2DE32"/>
<path d="M180.426 133C177.439 133 174.799 132.227 172.506 130.68C170.266 129.134 168.532 126.947 167.306 124.12C166.079 121.24 165.466 117.934 165.466 114.2C165.466 108.067 166.799 102.654 169.466 97.9603C172.186 93.2136 175.946 89.5336 180.746 86.9203C185.599 84.3069 191.146 83.0003 197.386 83.0003C199.626 83.0003 201.732 83.2136 203.706 83.6403C204.346 85.0803 204.666 87.2936 204.666 90.2803C200.452 90.2803 196.559 91.2403 192.986 93.1603C189.412 95.0269 186.559 97.5603 184.426 100.76C182.346 103.907 181.306 107.347 181.306 111.08C181.306 113.694 181.839 115.72 182.906 117.16C184.026 118.547 185.572 119.24 187.546 119.24C191.492 119.24 194.639 116.894 196.986 112.2C199.332 107.507 201.012 100.2 202.026 90.2803C203.466 88.4669 205.039 87.1336 206.746 86.2803C208.452 85.4269 210.372 85.0003 212.506 85.0003C214.372 85.0003 215.812 85.5603 216.826 86.6803C217.839 87.7469 218.346 89.2936 218.346 91.3203C218.346 92.3869 218.159 93.9336 217.786 95.9603C217.412 97.9869 216.959 100.12 216.426 102.36C215.412 106.68 214.639 110.36 214.106 113.4C213.572 116.387 213.306 119.187 213.306 121.8C213.306 125.267 214.132 127.694 215.786 129.08C212.532 131.694 209.092 133 205.466 133C202.746 133 200.639 132.227 199.146 130.68C197.706 129.08 196.986 126.867 196.986 124.04C196.986 123.134 197.066 122.174 197.226 121.16L196.426 120.76C194.932 124.6 192.746 127.614 189.866 129.8C187.039 131.934 183.892 133 180.426 133Z" fill="#D2DE32"/>
<path d="M262.6 134.2C251.592 134.2 242.973 131 236.744 124.6C230.6 118.2 227.528 109.24 227.528 97.72C227.528 86.5413 229.96 76.4293 234.824 67.384C239.773 58.2533 246.429 51.0853 254.792 45.88C263.155 40.6747 272.371 38.072 282.44 38.072C288.584 38.072 293.405 39.0533 296.904 41.016C300.403 42.9787 302.152 45.7093 302.152 49.208C302.152 52.1093 301 54.584 298.696 56.632C296.392 58.5947 293.533 59.576 290.12 59.576C286.451 59.576 283.08 58.7653 280.008 57.144C277.021 55.5227 274.589 52.792 272.712 48.952C267.165 51.3413 262.216 54.968 257.864 59.832C253.512 64.696 250.099 70.4987 247.624 77.24C245.149 83.896 243.912 91.064 243.912 98.744C243.912 107.021 245.533 113.507 248.776 118.2C252.019 122.893 256.499 125.24 262.216 125.24C266.568 125.24 270.451 124.173 273.864 122.04C277.277 119.821 279.965 116.835 281.928 113.08C283.976 109.24 285.171 104.973 285.512 100.28C288.84 100.28 291.4 101.005 293.192 102.456C295.069 103.821 296.008 106.04 296.008 109.112C296.008 113.635 294.472 117.816 291.4 121.656C288.413 125.496 284.36 128.568 279.24 130.872C274.12 133.091 268.573 134.2 262.6 134.2Z" fill="#016A70"/>
<path d="M311.08 129C309.213 129 307.827 128.52 306.92 127.56C306.013 126.6 305.56 125.187 305.56 123.32C305.56 121.453 306.013 117.96 306.92 112.84C307.827 107.667 309.347 99.56 311.48 88.52C312.013 85.8533 312.547 83.1867 313.08 80.52C313.613 77.8 314.12 75.1067 314.6 72.44L311.08 68.44C312.307 67.3733 313.773 66.5467 315.48 65.96C317.24 65.32 318.84 65 320.28 65C321.773 65 322.84 65.3467 323.48 66.04C324.12 66.68 324.44 67.8 324.44 69.4C324.44 70.4133 324.28 71.7467 323.96 73.4C323.64 75 323.107 77.2933 322.36 80.28C320.92 86.0933 319.88 90.6 319.24 93.8L320.04 94.2C322.973 88.92 326.36 85.08 330.2 82.68C334.04 80.2267 337.907 79 341.8 79C345.213 79 347.773 79.88 349.48 81.64C351.187 83.3467 352.04 86.0133 352.04 89.64C352.04 91.7733 351.8 93.9867 351.32 96.28C350.893 98.5733 350.253 101.453 349.4 104.92C348.387 108.973 347.64 112.307 347.16 114.92C346.68 117.48 346.44 120.04 346.44 122.6C346.44 124.627 346.787 126.013 347.48 126.76C345.827 128.253 344.12 129 342.36 129C340.493 129 339.133 128.52 338.28 127.56C337.427 126.6 337 125.187 337 123.32C337 121.293 337.213 119.027 337.64 116.52C338.12 113.96 338.787 110.653 339.64 106.6C340.44 103.24 341.027 100.44 341.4 98.2C341.827 95.9067 342.04 93.9333 342.04 92.28C342.04 87.96 340.413 85.8 337.16 85.8C333.907 85.8 330.547 87.4 327.08 90.6C323.667 93.8 320.813 98.2267 318.52 103.88C316.227 109.48 315.08 115.72 315.08 122.6C315.08 124.573 315.4 125.96 316.04 126.76C314.493 128.253 312.84 129 311.08 129Z" fill="#016A70"/>
<path d="M370.624 129C367.744 129 365.184 128.227 362.944 126.68C360.758 125.133 359.051 122.947 357.824 120.12C356.651 117.24 356.064 113.933 356.064 110.2C356.064 104.44 357.424 99.1867 360.144 94.44C362.864 89.64 366.571 85.88 371.264 83.16C375.958 80.3867 381.131 79 386.784 79C389.238 79 391.744 79.2133 394.304 79.64C394.944 80.76 395.264 82.0133 395.264 83.4C389.238 83.4 384.011 84.5467 379.584 86.84C375.158 89.1333 371.771 92.3067 369.424 96.36C367.078 100.36 365.904 104.893 365.904 109.96C365.904 113.587 366.651 116.413 368.144 118.44C369.638 120.467 371.744 121.48 374.464 121.48C379.424 121.48 383.504 118.333 386.704 112.04C389.904 105.693 392.304 96.1467 393.904 83.4C394.491 82.6533 395.238 82.0667 396.144 81.64C397.104 81.2133 398.064 81 399.024 81C400.358 81 401.398 81.32 402.144 81.96C402.944 82.6 403.344 83.48 403.344 84.6C403.344 85.8267 403.158 87.2933 402.784 89C402.464 90.7067 401.904 93.2133 401.104 96.52C399.824 101.907 398.838 106.573 398.144 110.52C397.451 114.467 397.104 118.493 397.104 122.6C397.104 124.467 397.584 125.853 398.544 126.76C396.891 128.253 395.104 129 393.184 129C391.371 129 389.984 128.44 389.024 127.32C388.064 126.2 387.584 124.573 387.584 122.44C387.584 121.267 387.771 119.667 388.144 117.64L387.344 117.24C385.424 120.973 382.998 123.88 380.064 125.96C377.184 127.987 374.038 129 370.624 129Z" fill="#016A70"/>
<path d="M426.868 129C421.002 129 416.388 127.293 413.028 123.88C409.722 120.467 408.068 115.72 408.068 109.64C408.068 103.88 409.348 98.68 411.908 94.04C414.468 89.3467 417.962 85.6667 422.388 83C426.815 80.3333 431.668 79 436.948 79C440.308 79 442.948 79.56 444.868 80.68C446.842 81.7467 447.828 83.24 447.828 85.16C447.828 86.76 447.188 88.12 445.908 89.24C444.682 90.3067 443.135 90.84 441.268 90.84C439.295 90.84 437.508 90.3867 435.908 89.48C434.308 88.5733 433.002 87.1067 431.988 85.08C429.268 86.2533 426.842 88.0667 424.708 90.52C422.575 92.9733 420.895 95.9067 419.668 99.32C418.495 102.68 417.908 106.28 417.908 110.12C417.908 114.333 418.682 117.64 420.228 120.04C421.828 122.44 424.015 123.64 426.788 123.64C429.028 123.64 431.028 123.08 432.788 121.96C434.548 120.84 435.935 119.32 436.948 117.4C437.962 115.427 438.548 113.24 438.708 110.84C440.788 110.84 442.388 111.24 443.508 112.04C444.628 112.84 445.188 114.067 445.188 115.72C445.188 118.12 444.362 120.333 442.708 122.36C441.055 124.387 438.815 125.987 435.988 127.16C433.215 128.387 430.175 129 426.868 129Z" fill="#016A70"/>
<path d="M464.078 129C461.198 129 458.638 128.227 456.398 126.68C454.211 125.133 452.504 122.947 451.278 120.12C450.104 117.24 449.518 113.933 449.518 110.2C449.518 104.44 450.878 99.1867 453.598 94.44C456.318 89.64 460.024 85.88 464.718 83.16C469.411 80.3867 474.584 79 480.238 79C482.691 79 485.198 79.2133 487.758 79.64C488.398 80.76 488.718 82.0133 488.718 83.4C482.691 83.4 477.464 84.5467 473.038 86.84C468.611 89.1333 465.224 92.3067 462.878 96.36C460.531 100.36 459.358 104.893 459.358 109.96C459.358 113.587 460.104 116.413 461.598 118.44C463.091 120.467 465.198 121.48 467.918 121.48C472.878 121.48 476.958 118.333 480.158 112.04C483.358 105.693 485.758 96.1467 487.358 83.4C487.944 82.6533 488.691 82.0667 489.598 81.64C490.558 81.2133 491.518 81 492.478 81C493.811 81 494.851 81.32 495.598 81.96C496.398 82.6 496.798 83.48 496.798 84.6C496.798 85.8267 496.611 87.2933 496.238 89C495.918 90.7067 495.358 93.2133 494.558 96.52C493.278 101.907 492.291 106.573 491.598 110.52C490.904 114.467 490.558 118.493 490.558 122.6C490.558 124.467 491.038 125.853 491.998 126.76C490.344 128.253 488.558 129 486.638 129C484.824 129 483.438 128.44 482.478 127.32C481.518 126.2 481.038 124.573 481.038 122.44C481.038 121.267 481.224 119.667 481.598 117.64L480.798 117.24C478.878 120.973 476.451 123.88 473.518 125.96C470.638 127.987 467.491 129 464.078 129Z" fill="#016A70"/>
<path d="M508.241 129C506.641 129 505.415 128.467 504.561 127.4C503.708 126.387 503.281 124.813 503.281 122.68C503.281 120.6 503.868 115.64 505.041 107.8C506.215 99.9067 512.548 61.56 514.041 52.76C514.361 50.8933 514.681 49.1067 515.001 47.4C515.321 45.64 515.615 43.9867 515.881 42.44L512.361 38.44C513.588 37.3733 515.055 36.5467 516.761 35.96C518.521 35.32 520.121 35 521.561 35C523.055 35 524.121 35.3467 524.761 36.04C525.401 36.68 525.721 37.8 525.721 39.4C525.721 40.0933 525.508 41.56 525.081 43.8C524.655 46.04 524.148 48.5467 523.561 51.32C521.801 59.9067 515.361 97.5333 514.241 104.2C513.175 110.813 512.641 116.707 512.641 121.88C512.641 122.893 512.775 123.853 513.041 124.76C513.361 125.613 513.761 126.28 514.241 126.76C513.441 127.453 512.535 127.987 511.521 128.36C510.508 128.787 509.415 129 508.241 129Z" fill="#016A70"/>
<path d="M537.921 129C535.041 129 532.481 128.227 530.241 126.68C528.055 125.133 526.348 122.947 525.121 120.12C523.948 117.24 523.361 113.933 523.361 110.2C523.361 104.44 524.721 99.1867 527.441 94.44C530.161 89.64 533.868 85.88 538.561 83.16C543.255 80.3867 548.428 79 554.081 79C556.535 79 559.041 79.2133 561.601 79.64C562.241 80.76 562.561 82.0133 562.561 83.4C556.535 83.4 551.308 84.5467 546.881 86.84C542.455 89.1333 539.068 92.3067 536.721 96.36C534.375 100.36 533.201 104.893 533.201 109.96C533.201 113.587 533.948 116.413 535.441 118.44C536.935 120.467 539.041 121.48 541.761 121.48C546.721 121.48 550.801 118.333 554.001 112.04C557.201 105.693 559.601 96.1467 561.201 83.4C561.788 82.6533 562.535 82.0667 563.441 81.64C564.401 81.2133 565.361 81 566.321 81C567.655 81 568.695 81.32 569.441 81.96C570.241 82.6 570.641 83.48 570.641 84.6C570.641 85.8267 570.455 87.2933 570.081 89C569.761 90.7067 569.201 93.2133 568.401 96.52C567.121 101.907 566.135 106.573 565.441 110.52C564.748 114.467 564.401 118.493 564.401 122.6C564.401 124.467 564.881 125.853 565.841 126.76C564.188 128.253 562.401 129 560.481 129C558.668 129 557.281 128.44 556.321 127.32C555.361 126.2 554.881 124.573 554.881 122.44C554.881 121.267 555.068 119.667 555.441 117.64L554.641 117.24C552.721 120.973 550.295 123.88 547.361 125.96C544.481 127.987 541.335 129 537.921 129Z" fill="#016A70"/>
</svg>
