<svg width="571" height="135" viewBox="0 0 571 135" fill="none" xmlns="http://www.w3.org/2000/svg">
<path fill-rule="evenodd" clip-rule="evenodd" d="M515.855 11.0869C508.28 0.396424 499.471 5.22697 496.014 8.97855C509.972 11.147 518.268 24.0215 520.673 30.1918C510.603 14.4429 498.216 14.35 493.281 16.2723C496.053 15.9796 498.023 16.9393 498.661 17.4557C481.739 16.4403 478.412 29.1693 478.864 35.6608C496.233 22.3367 513.974 26.4642 520.674 30.194L520.675 30.1958C526.769 18.9026 519.197 9.56628 514.649 6.30983C516.182 7.54929 516.091 10.011 515.855 11.0869ZM520.568 31.3652C512.606 33.3737 495.64 42.1249 491.475 61.0615C487.96 56.5283 482.716 44.4711 495.843 36.0781L489.516 39.1984C492.851 34.2925 506.21 22.7923 520.568 31.3652ZM523.187 31.9419C529.571 37.1063 541.297 52.1693 537.131 71.1059C542.224 68.4662 552.044 59.7228 543.651 46.5959L548.084 52.0832C547.116 46.2305 539.816 30.1858 523.187 31.9419ZM523.584 30.832C528.357 26.2406 541.29 18.0369 554.869 21.9263C553.305 17.0702 547.337 8.98904 535.975 15.5137C536.212 14.4378 537.163 12.1655 539.074 11.6834C533.579 12.7307 522.789 18.0275 523.581 30.8355C523.581 30.8351 523.581 30.8347 523.582 30.8343C531.229 30.2609 549.064 33.9597 559.238 53.3426C562.372 47.6401 564.694 34.6902 548.908 28.5102C549.704 28.3093 551.895 28.2648 554.288 29.6936C550.616 25.878 539.334 20.7643 523.584 30.832Z" fill="white"/>
<path d="M464.44 65.8926C464.44 60.1801 463.315 54.5235 461.129 49.2458C458.943 43.9682 455.739 39.1728 451.699 35.1334C447.66 31.0941 442.865 27.8899 437.587 25.7038C432.309 23.5177 426.653 22.3926 420.94 22.3926C415.228 22.3926 409.571 23.5177 404.293 25.7038C399.016 27.8899 394.22 31.0941 390.181 35.1334C386.142 39.1728 382.938 43.9682 380.751 49.2459C378.565 54.5235 377.44 60.1801 377.44 65.8926L413.44 69.8926L430.44 66.8926L446.94 70.8926L464.44 65.8926Z" fill="white"/>
<path fill-rule="evenodd" clip-rule="evenodd" d="M375.896 30.9739C376.127 32.054 375.439 33.1172 374.359 33.3486C367.901 34.7326 365.206 37.7449 364.063 40.1802C363.469 41.445 363.255 42.6377 363.211 43.5154C363.189 43.9559 363.212 44.2914 363.24 44.4926C363.242 44.5071 363.244 44.5203 363.246 44.5322C363.569 45.2106 363.491 46.0378 362.994 46.6517C362.35 47.4472 361.209 47.6276 360.35 47.0696C356.947 44.8575 353.886 44.9912 351.364 45.9898C348.737 47.0299 346.648 49.0431 345.568 50.5552C344.926 51.454 343.676 51.6622 342.778 51.0202C341.879 50.3782 341.671 49.1291 342.313 48.2302C343.733 46.2424 346.393 43.6555 349.891 42.2707C352.651 41.1779 355.902 40.854 359.338 42.1055C359.503 41.0151 359.837 39.7694 360.442 38.4805C362.174 34.7909 365.979 31.0534 373.521 29.4374C374.601 29.2059 375.664 29.8939 375.896 30.9739Z" fill="white"/>
<path fill-rule="evenodd" clip-rule="evenodd" d="M344.396 33.4739C344.627 34.554 343.939 35.6172 342.859 35.8486C337.567 36.9826 335.415 39.4325 334.511 41.3574C334.037 42.367 333.867 43.3175 333.832 44.0117C333.815 44.3477 333.832 44.5999 333.851 44.7469C334.149 45.4161 334.063 46.2191 333.577 46.8186C332.933 47.6141 331.792 47.7944 330.933 47.2365C328.197 45.4577 325.761 45.5706 323.749 46.3671C321.633 47.2051 319.939 48.835 319.068 50.0555C318.426 50.9543 317.176 51.1625 316.278 50.5205C315.379 49.8785 315.171 48.6294 315.813 47.7305C317.024 46.0343 319.289 43.8308 322.277 42.648C324.546 41.7497 327.203 41.459 330.009 42.3767C330.167 41.5383 330.442 40.6116 330.89 39.6577C332.382 36.4785 335.646 33.3035 342.021 31.9374C343.101 31.7059 344.164 32.3939 344.396 33.4739Z" fill="white"/>
<path fill-rule="evenodd" clip-rule="evenodd" d="M370.615 71.8077C369.696 72.1932 368.81 72.5606 368.037 72.8022C366.982 73.1317 365.861 72.5441 365.531 71.4898C365.202 70.4355 365.789 69.3138 366.844 68.9843C367.404 68.8093 368.111 68.5204 369.067 68.1194C369.165 68.078 369.266 68.0356 369.369 67.9923C370.231 67.6297 371.238 67.2064 372.367 66.775C374.908 65.8038 378.1 64.7782 382.006 64.1672C389.685 62.9659 399.948 63.3941 413.345 68.6998C424.067 63.4587 435.599 64.9559 446.737 68.7097C450.379 66.7465 460.323 62.5903 471.669 67.0301C472.698 67.4326 473.205 68.5928 472.803 69.6214C472.4 70.65 471.24 71.1576 470.211 70.7551C459.578 66.5942 450.278 71.2228 447.969 72.6082C447.461 72.9133 446.843 72.9771 446.283 72.7822C434.975 68.8486 424.137 67.5474 414.368 72.6649C413.847 72.9382 413.231 72.9677 412.686 72.7454C399.5 67.3733 389.7 67.0122 382.624 68.1191C379.072 68.6747 376.16 69.6076 373.795 70.5114C372.731 70.9179 371.785 71.3157 370.919 71.6796C370.817 71.7228 370.715 71.7655 370.615 71.8077Z" fill="white"/>
<path d="M33.792 134.233C27.648 134.233 22.6987 133.124 18.944 130.905C15.2747 128.772 12.5867 125.358 10.88 120.665C9.17333 115.886 8.32 109.486 8.32 101.465C8.32 96.6008 8.36267 93.0168 8.448 90.7128C8.53333 81.9235 8.448 74.8835 8.192 69.5928C8.02133 64.3022 7.296 59.3528 6.016 54.7448C4.736 50.0515 2.73067 46.2115 0 43.2248C4.94933 39.3848 10.2827 37.4648 16 37.4648C20.2667 37.4648 23.7653 38.7448 26.496 41.3048C29.312 43.8648 31.4453 48.1742 32.896 54.2328C34.3467 60.2062 35.072 68.3128 35.072 78.5528C35.072 86.4888 34.9867 93.7422 34.816 100.313C34.7307 106.798 34.56 112.388 34.304 117.081H35.84C44.8853 102.745 51.712 90.2008 56.32 79.4488C61.0133 68.6115 63.36 60.5475 63.36 55.2568C63.36 52.9528 63.1467 50.8622 62.72 48.9848C62.2933 47.0222 61.568 45.1022 60.544 43.2248C63.0187 41.4328 65.8773 40.0248 69.12 39.0008C72.448 37.9768 75.6053 37.4648 78.592 37.4648C82.5173 37.4648 85.4613 38.5315 87.424 40.6648C89.472 42.7982 90.496 45.9128 90.496 50.0088C90.496 55.2995 88.6613 62.5528 84.992 71.7688C81.3227 80.9848 74.4533 95.4062 64.384 115.033L66.304 122.201C62.464 125.7 57.4293 128.558 51.2 130.777C45.056 133.081 39.2533 134.233 33.792 134.233Z" fill="white"/>
<path d="M97.08 132.393C93.7733 132.393 91.3733 131.566 89.88 129.913C88.3867 128.26 87.64 125.78 87.64 122.473C87.64 120.393 88.12 116.9 89.08 111.993C90.0933 107.086 91.32 101.46 92.76 95.1128L88.28 88.3928C90.84 86.5795 93.48 85.1395 96.2 84.0728C98.9733 82.9528 101.587 82.3928 104.04 82.3928C106.227 82.3928 107.773 82.8728 108.68 83.8328C109.587 84.7395 110.04 86.2328 110.04 88.3128C110.04 89.0062 109.827 90.2862 109.4 92.1528C109.027 93.9662 108.6 95.9662 108.12 98.1528C106.893 103.22 105.907 107.646 105.16 111.433C104.467 115.166 104.12 118.42 104.12 121.193C104.12 124.606 104.947 127.033 106.6 128.473C103.613 131.086 100.44 132.393 97.08 132.393ZM101.88 77.9928C99.3733 77.9928 97.32 77.4062 95.72 76.2328C94.1733 75.0062 93.4 73.3795 93.4 71.3528C93.4 69.5395 93.96 67.9662 95.08 66.6328C96.2 65.2995 97.5867 64.3128 99.24 63.6728C100.947 62.9795 102.6 62.6328 104.2 62.6328C106.707 62.6328 108.733 63.2462 110.28 64.4728C111.88 65.6462 112.68 67.2462 112.68 69.2728C112.68 71.7795 111.613 73.8595 109.48 75.5128C107.347 77.1662 104.813 77.9928 101.88 77.9928Z" fill="white"/>
<path d="M132.016 132.393C128.442 132.393 125.562 131.806 123.376 130.633C121.189 129.46 119.589 127.62 118.576 125.113C117.562 122.606 117.056 119.3 117.056 115.193C117.056 112.74 117.082 110.9 117.136 109.673C117.189 105.14 117.136 101.566 116.976 98.9528C116.869 96.2862 116.469 93.8062 115.776 91.5128C115.136 89.2195 114.096 87.3262 112.656 85.8328C115.589 83.5395 118.762 82.3928 122.176 82.3928C124.522 82.3928 126.469 83.0062 128.016 84.2328C129.616 85.4062 130.842 87.4328 131.696 90.3128C132.549 93.1928 132.976 97.1128 132.976 102.073C132.976 104.206 132.949 106.42 132.896 108.713C132.896 110.953 132.869 113.193 132.816 115.433C132.762 116.766 132.709 118.046 132.656 119.273C132.656 120.446 132.629 121.566 132.576 122.633H133.376C137.856 115.86 141.322 109.7 143.776 104.153C146.229 98.6062 147.456 94.4995 147.456 91.8328C147.456 89.8062 146.949 87.8062 145.936 85.8328C147.269 84.8195 148.922 83.9928 150.896 83.3528C152.922 82.7128 154.842 82.3928 156.656 82.3928C159.002 82.3928 160.762 82.9528 161.936 84.0728C163.109 85.1928 163.696 86.8728 163.696 89.1128C163.696 90.7662 163.322 92.6862 162.576 94.8728C161.882 97.0595 160.576 100.073 158.656 103.913C156.789 107.753 153.909 113.326 150.016 120.633L151.856 124.873C149.402 127.06 146.309 128.873 142.576 130.313C138.842 131.7 135.322 132.393 132.016 132.393Z" fill="white"/>
<path d="M179.866 132.393C176.879 132.393 174.239 131.62 171.946 130.073C169.706 128.526 167.972 126.34 166.746 123.513C165.519 120.633 164.906 117.326 164.906 113.593C164.906 107.46 166.239 102.046 168.906 97.3528C171.626 92.6062 175.386 88.9262 180.186 86.3128C185.039 83.6995 190.586 82.3928 196.826 82.3928C199.066 82.3928 201.172 82.6062 203.146 83.0328C203.786 84.4728 204.106 86.6862 204.106 89.6728C199.892 89.6728 195.999 90.6328 192.426 92.5528C188.852 94.4195 185.999 96.9528 183.866 100.153C181.786 103.3 180.746 106.74 180.746 110.473C180.746 113.086 181.279 115.113 182.346 116.553C183.466 117.94 185.012 118.633 186.986 118.633C190.932 118.633 194.079 116.286 196.426 111.593C198.772 106.9 200.452 99.5928 201.466 89.6728C202.906 87.8595 204.479 86.5262 206.186 85.6728C207.892 84.8195 209.812 84.3928 211.946 84.3928C213.812 84.3928 215.252 84.9528 216.266 86.0728C217.279 87.1395 217.786 88.6862 217.786 90.7128C217.786 91.7795 217.599 93.3262 217.226 95.3528C216.852 97.3795 216.399 99.5128 215.866 101.753C214.852 106.073 214.079 109.753 213.546 112.793C213.012 115.78 212.746 118.58 212.746 121.193C212.746 124.66 213.572 127.086 215.226 128.473C211.972 131.086 208.532 132.393 204.906 132.393C202.186 132.393 200.079 131.62 198.586 130.073C197.146 128.473 196.426 126.26 196.426 123.433C196.426 122.526 196.506 121.566 196.666 120.553L195.866 120.153C194.372 123.993 192.186 127.006 189.306 129.193C186.479 131.326 183.332 132.393 179.866 132.393Z" fill="white"/>
<path d="M262.04 133.593C251.032 133.593 242.413 130.393 236.184 123.993C230.04 117.593 226.968 108.633 226.968 97.1126C226.968 85.9339 229.4 75.8219 234.264 66.7766C239.213 57.6459 245.869 50.4779 254.232 45.2726C262.595 40.0672 271.811 37.4646 281.88 37.4646C288.024 37.4646 292.845 38.4459 296.344 40.4086C299.843 42.3712 301.592 45.1019 301.592 48.6006C301.592 51.5019 300.44 53.9766 298.136 56.0246C295.832 57.9872 292.973 58.9686 289.56 58.9686C285.891 58.9686 282.52 58.1579 279.448 56.5366C276.461 54.9152 274.029 52.1846 272.152 48.3446C266.605 50.7339 261.656 54.3606 257.304 59.2246C252.952 64.0886 249.539 69.8912 247.064 76.6326C244.589 83.2886 243.352 90.4566 243.352 98.1366C243.352 106.414 244.973 112.899 248.216 117.593C251.459 122.286 255.939 124.633 261.656 124.633C266.008 124.633 269.891 123.566 273.304 121.433C276.717 119.214 279.405 116.227 281.368 112.473C283.416 108.633 284.611 104.366 284.952 99.6726C288.28 99.6726 290.84 100.398 292.632 101.849C294.509 103.214 295.448 105.433 295.448 108.505C295.448 113.027 293.912 117.209 290.84 121.049C287.853 124.889 283.8 127.961 278.68 130.265C273.56 132.483 268.013 133.593 262.04 133.593Z" fill="white"/>
<path d="M310.52 128.393C308.653 128.393 307.267 127.913 306.36 126.953C305.453 125.993 305 124.579 305 122.713C305 120.846 305.453 117.353 306.36 112.233C307.267 107.059 308.787 98.9526 310.92 87.9126C311.453 85.2459 311.987 82.5792 312.52 79.9126C313.053 77.1926 313.56 74.4992 314.04 71.8326L310.52 67.8326C311.747 66.7659 313.213 65.9392 314.92 65.3526C316.68 64.7126 318.28 64.3926 319.72 64.3926C321.213 64.3926 322.28 64.7392 322.92 65.4326C323.56 66.0726 323.88 67.1926 323.88 68.7926C323.88 69.8059 323.72 71.1392 323.4 72.7926C323.08 74.3926 322.547 76.6859 321.8 79.6726C320.36 85.4859 319.32 89.9926 318.68 93.1926L319.48 93.5926C322.413 88.3126 325.8 84.4726 329.64 82.0726C333.48 79.6192 337.347 78.3926 341.24 78.3926C344.653 78.3926 347.213 79.2726 348.92 81.0326C350.627 82.7392 351.48 85.4059 351.48 89.0326C351.48 91.1659 351.24 93.3792 350.76 95.6726C350.333 97.9659 349.693 100.846 348.84 104.313C347.827 108.366 347.08 111.699 346.6 114.313C346.12 116.873 345.88 119.433 345.88 121.993C345.88 124.019 346.227 125.406 346.92 126.153C345.267 127.646 343.56 128.393 341.8 128.393C339.933 128.393 338.573 127.913 337.72 126.953C336.867 125.993 336.44 124.579 336.44 122.713C336.44 120.686 336.653 118.419 337.08 115.913C337.56 113.353 338.227 110.046 339.08 105.993C339.88 102.633 340.467 99.8326 340.84 97.5926C341.267 95.2992 341.48 93.3259 341.48 91.6726C341.48 87.3526 339.853 85.1926 336.6 85.1926C333.347 85.1926 329.987 86.7926 326.52 89.9926C323.107 93.1926 320.253 97.6192 317.96 103.273C315.667 108.873 314.52 115.113 314.52 121.993C314.52 123.966 314.84 125.353 315.48 126.153C313.933 127.646 312.28 128.393 310.52 128.393Z" fill="white"/>
<path d="M370.064 128.393C367.184 128.393 364.624 127.619 362.384 126.073C360.198 124.526 358.491 122.339 357.264 119.513C356.091 116.633 355.504 113.326 355.504 109.593C355.504 103.833 356.864 98.5792 359.584 93.8326C362.304 89.0326 366.011 85.2726 370.704 82.5526C375.398 79.7792 380.571 78.3926 386.224 78.3926C388.678 78.3926 391.184 78.6059 393.744 79.0326C394.384 80.1526 394.704 81.4059 394.704 82.7926C388.678 82.7926 383.451 83.9392 379.024 86.2326C374.598 88.5259 371.211 91.6992 368.864 95.7526C366.518 99.7526 365.344 104.286 365.344 109.353C365.344 112.979 366.091 115.806 367.584 117.833C369.078 119.859 371.184 120.873 373.904 120.873C378.864 120.873 382.944 117.726 386.144 111.433C389.344 105.086 391.744 95.5392 393.344 82.7926C393.931 82.0459 394.678 81.4592 395.584 81.0326C396.544 80.6059 397.504 80.3926 398.464 80.3926C399.798 80.3926 400.838 80.7126 401.584 81.3526C402.384 81.9926 402.784 82.8726 402.784 83.9926C402.784 85.2192 402.598 86.6859 402.224 88.3926C401.904 90.0992 401.344 92.6059 400.544 95.9126C399.264 101.299 398.278 105.966 397.584 109.913C396.891 113.859 396.544 117.886 396.544 121.993C396.544 123.859 397.024 125.246 397.984 126.153C396.331 127.646 394.544 128.393 392.624 128.393C390.811 128.393 389.424 127.833 388.464 126.713C387.504 125.593 387.024 123.966 387.024 121.833C387.024 120.659 387.211 119.059 387.584 117.033L386.784 116.633C384.864 120.366 382.438 123.273 379.504 125.353C376.624 127.379 373.478 128.393 370.064 128.393Z" fill="white"/>
<path d="M426.308 128.393C420.441 128.393 415.828 126.686 412.468 123.273C409.161 119.859 407.508 115.113 407.508 109.033C407.508 103.273 408.788 98.0726 411.348 93.4326C413.908 88.7392 417.401 85.0592 421.828 82.3926C426.255 79.7259 431.108 78.3926 436.388 78.3926C439.748 78.3926 442.388 78.9526 444.308 80.0726C446.281 81.1392 447.268 82.6326 447.268 84.5526C447.268 86.1526 446.628 87.5126 445.348 88.6326C444.121 89.6992 442.575 90.2326 440.708 90.2326C438.735 90.2326 436.948 89.7792 435.348 88.8726C433.748 87.9659 432.441 86.4992 431.428 84.4726C428.708 85.6459 426.281 87.4592 424.148 89.9126C422.015 92.3659 420.335 95.2992 419.108 98.7126C417.935 102.073 417.348 105.673 417.348 109.513C417.348 113.726 418.121 117.033 419.668 119.433C421.268 121.833 423.455 123.033 426.228 123.033C428.468 123.033 430.468 122.473 432.228 121.353C433.988 120.233 435.375 118.713 436.388 116.793C437.401 114.819 437.988 112.633 438.148 110.233C440.228 110.233 441.828 110.633 442.948 111.433C444.068 112.233 444.628 113.459 444.628 115.113C444.628 117.513 443.801 119.726 442.148 121.753C440.495 123.779 438.255 125.379 435.428 126.553C432.655 127.779 429.615 128.393 426.308 128.393Z" fill="white"/>
<path d="M463.518 128.393C460.638 128.393 458.078 127.619 455.838 126.073C453.651 124.526 451.944 122.339 450.718 119.513C449.544 116.633 448.958 113.326 448.958 109.593C448.958 103.833 450.318 98.5792 453.038 93.8326C455.758 89.0326 459.464 85.2726 464.158 82.5526C468.851 79.7792 474.024 78.3926 479.678 78.3926C482.131 78.3926 484.638 78.6059 487.198 79.0326C487.838 80.1526 488.158 81.4059 488.158 82.7926C482.131 82.7926 476.904 83.9392 472.478 86.2326C468.051 88.5259 464.664 91.6992 462.318 95.7526C459.971 99.7526 458.798 104.286 458.798 109.353C458.798 112.979 459.544 115.806 461.038 117.833C462.531 119.859 464.638 120.873 467.358 120.873C472.318 120.873 476.398 117.726 479.598 111.433C482.798 105.086 485.198 95.5392 486.798 82.7926C487.384 82.0459 488.131 81.4592 489.038 81.0326C489.998 80.6059 490.958 80.3926 491.918 80.3926C493.251 80.3926 494.291 80.7126 495.038 81.3526C495.838 81.9926 496.238 82.8726 496.238 83.9926C496.238 85.2192 496.051 86.6859 495.678 88.3926C495.358 90.0992 494.797 92.6059 493.997 95.9126C492.717 101.299 491.731 105.966 491.038 109.913C490.344 113.859 489.997 117.886 489.997 121.993C489.997 123.859 490.477 125.246 491.438 126.153C489.784 127.646 487.998 128.393 486.078 128.393C484.264 128.393 482.878 127.833 481.918 126.713C480.958 125.593 480.478 123.966 480.478 121.833C480.478 120.659 480.664 119.059 481.038 117.033L480.238 116.633C478.318 120.366 475.891 123.273 472.958 125.353C470.078 127.379 466.931 128.393 463.518 128.393Z" fill="white"/>
<path d="M507.681 128.393C506.081 128.393 504.855 127.859 504.001 126.793C503.148 125.779 502.721 124.206 502.721 122.073C502.721 119.993 503.308 115.033 504.481 107.193C505.655 99.2992 511.988 60.9526 513.481 52.1526C513.801 50.2859 514.121 48.4992 514.441 46.7926C514.761 45.0326 515.055 43.3792 515.321 41.8326L511.801 37.8326C513.028 36.7659 514.495 35.9392 516.201 35.3526C517.961 34.7126 519.561 34.3926 521.001 34.3926C522.495 34.3926 523.561 34.7392 524.201 35.4326C524.841 36.0726 525.161 37.1926 525.161 38.7926C525.161 39.4859 524.948 40.9526 524.521 43.1926C524.095 45.4326 523.588 47.9392 523.001 50.7126C521.241 59.2992 514.801 96.9259 513.681 103.593C512.615 110.206 512.081 116.099 512.081 121.273C512.081 122.286 512.215 123.246 512.481 124.153C512.801 125.006 513.201 125.673 513.681 126.153C512.881 126.846 511.975 127.379 510.961 127.753C509.948 128.179 508.855 128.393 507.681 128.393Z" fill="white"/>
<path d="M537.361 128.393C534.481 128.393 531.921 127.619 529.681 126.073C527.495 124.526 525.788 122.339 524.561 119.513C523.388 116.633 522.801 113.326 522.801 109.593C522.801 103.833 524.161 98.5792 526.881 93.8326C529.601 89.0326 533.308 85.2726 538.001 82.5526C542.695 79.7792 547.868 78.3926 553.521 78.3926C555.975 78.3926 558.481 78.6059 561.041 79.0326C561.681 80.1526 562.001 81.4059 562.001 82.7926C555.975 82.7926 550.748 83.9392 546.321 86.2326C541.895 88.5259 538.508 91.6992 536.161 95.7526C533.815 99.7526 532.641 104.286 532.641 109.353C532.641 112.979 533.388 115.806 534.881 117.833C536.375 119.859 538.481 120.873 541.201 120.873C546.161 120.873 550.241 117.726 553.441 111.433C556.641 105.086 559.041 95.5392 560.641 82.7926C561.228 82.0459 561.975 81.4592 562.881 81.0326C563.841 80.6059 564.801 80.3926 565.761 80.3926C567.095 80.3926 568.135 80.7126 568.881 81.3526C569.681 81.9926 570.081 82.8726 570.081 83.9926C570.081 85.2192 569.895 86.6859 569.521 88.3926C569.201 90.0992 568.641 92.6059 567.841 95.9126C566.561 101.299 565.575 105.966 564.881 109.913C564.188 113.859 563.841 117.886 563.841 121.993C563.841 123.859 564.321 125.246 565.281 126.153C563.628 127.646 561.841 128.393 559.921 128.393C558.108 128.393 556.721 127.833 555.761 126.713C554.801 125.593 554.321 123.966 554.321 121.833C554.321 120.659 554.508 119.059 554.881 117.033L554.081 116.633C552.161 120.366 549.735 123.273 546.801 125.353C543.921 127.379 540.775 128.393 537.361 128.393Z" fill="white"/>
</svg>
